<svg width="298" height="124" viewBox="0 0 298 124" fill="none" xmlns="http://www.w3.org/2000/svg">
<path d="M136.034 46.0398V11.1307H149.807C152.455 11.1307 154.71 11.6364 156.574 12.6477C158.438 13.6477 159.858 15.0398 160.835 16.8239C161.824 18.5966 162.318 20.642 162.318 22.9602C162.318 25.2784 161.818 27.3239 160.818 29.0966C159.818 30.8693 158.369 32.25 156.472 33.2386C154.585 34.2273 152.301 34.7216 149.619 34.7216H140.841V28.8068H148.426C149.847 28.8068 151.017 28.5625 151.938 28.0739C152.869 27.5739 153.563 26.8864 154.017 26.0114C154.483 25.125 154.716 24.108 154.716 22.9602C154.716 21.8011 154.483 20.7898 154.017 19.9261C153.563 19.0511 152.869 18.375 151.938 17.8977C151.006 17.4091 149.824 17.1648 148.392 17.1648H143.415V46.0398H136.034Z" fill="white"/>
<path d="M167.112 46.0398V11.1307H180.885C183.521 11.1307 185.771 11.6023 187.635 12.5455C189.51 13.4773 190.936 14.8011 191.913 16.517C192.902 18.2216 193.396 20.2273 193.396 22.5341C193.396 24.8523 192.896 26.8466 191.896 28.517C190.896 30.1761 189.448 31.4489 187.55 32.3352C185.663 33.2216 183.379 33.6648 180.698 33.6648H171.476V27.733H179.504C180.913 27.733 182.084 27.5398 183.016 27.1534C183.948 26.767 184.641 26.1875 185.095 25.4148C185.561 24.642 185.794 23.6818 185.794 22.5341C185.794 21.375 185.561 20.3977 185.095 19.6023C184.641 18.8068 183.942 18.2045 182.999 17.7955C182.067 17.375 180.891 17.1648 179.47 17.1648H174.493V46.0398H167.112ZM185.965 30.1534L194.641 46.0398H186.493L178.004 30.1534H185.965Z" fill="white"/>
<path d="M230.692 28.5852C230.692 32.392 229.97 35.6307 228.527 38.3011C227.095 40.9716 225.141 43.0114 222.663 44.4205C220.198 45.8182 217.425 46.517 214.345 46.517C211.243 46.517 208.459 45.8125 205.993 44.4034C203.527 42.9943 201.578 40.9545 200.146 38.2841C198.715 35.6136 197.999 32.3807 197.999 28.5852C197.999 24.7784 198.715 21.5398 200.146 18.8693C201.578 16.1989 203.527 14.1648 205.993 12.767C208.459 11.358 211.243 10.6534 214.345 10.6534C217.425 10.6534 220.198 11.358 222.663 12.767C225.141 14.1648 227.095 16.1989 228.527 18.8693C229.97 21.5398 230.692 24.7784 230.692 28.5852ZM223.209 28.5852C223.209 26.1193 222.84 24.0398 222.101 22.3466C221.374 20.6534 220.345 19.3693 219.016 18.4943C217.686 17.6193 216.129 17.1818 214.345 17.1818C212.561 17.1818 211.004 17.6193 209.675 18.4943C208.345 19.3693 207.311 20.6534 206.573 22.3466C205.845 24.0398 205.482 26.1193 205.482 28.5852C205.482 31.0511 205.845 33.1307 206.573 34.8239C207.311 36.517 208.345 37.8011 209.675 38.6761C211.004 39.5511 212.561 39.9886 214.345 39.9886C216.129 39.9886 217.686 39.5511 219.016 38.6761C220.345 37.8011 221.374 36.517 222.101 34.8239C222.84 33.1307 223.209 31.0511 223.209 28.5852ZM211.737 7.75568L215.351 0H222.067L216.868 7.75568H211.737Z" fill="white"/>
<path d="M156.318 67.858C156.114 66.1307 155.284 64.7898 153.83 63.8352C152.375 62.8807 150.591 62.4034 148.477 62.4034C146.932 62.4034 145.58 62.6534 144.421 63.1534C143.273 63.6534 142.375 64.3409 141.727 65.2159C141.091 66.0909 140.773 67.0852 140.773 68.1989C140.773 69.1307 140.994 69.9318 141.438 70.6023C141.892 71.2614 142.472 71.8125 143.176 72.2557C143.881 72.6875 144.619 73.0455 145.392 73.3295C146.165 73.6023 146.875 73.8239 147.523 73.9943L151.068 74.9489C151.977 75.1875 152.989 75.517 154.102 75.9375C155.227 76.358 156.301 76.9318 157.324 77.6591C158.358 78.375 159.21 79.2955 159.881 80.4205C160.551 81.5455 160.886 82.9261 160.886 84.5625C160.886 86.4489 160.392 88.1534 159.403 89.6761C158.426 91.1989 156.994 92.4091 155.108 93.3068C153.233 94.2045 150.955 94.6534 148.273 94.6534C145.773 94.6534 143.608 94.25 141.778 93.4432C139.96 92.6364 138.528 91.5114 137.483 90.0682C136.449 88.625 135.864 86.9489 135.727 85.0398H140.091C140.205 86.358 140.648 87.4489 141.421 88.3125C142.205 89.1648 143.193 89.8011 144.386 90.2216C145.591 90.6307 146.886 90.8352 148.273 90.8352C149.886 90.8352 151.335 90.5739 152.619 90.0511C153.903 89.5171 154.921 88.7784 155.671 87.8352C156.421 86.8807 156.796 85.767 156.796 84.4943C156.796 83.3352 156.472 82.392 155.824 81.6648C155.176 80.9375 154.324 80.3466 153.267 79.892C152.21 79.4375 151.068 79.0398 149.841 78.6989L145.546 77.4716C142.818 76.6875 140.659 75.5682 139.068 74.1136C137.477 72.6591 136.682 70.7557 136.682 68.4034C136.682 66.4489 137.21 64.7443 138.267 63.2898C139.335 61.8239 140.767 60.6875 142.563 59.8807C144.369 59.0625 146.386 58.6534 148.614 58.6534C150.864 58.6534 152.864 59.0568 154.614 59.8636C156.364 60.6591 157.75 61.75 158.773 63.1364C159.807 64.5227 160.352 66.0966 160.409 67.858H156.318Z" fill="white"/>
<path d="M170.709 94.0398H166.277L179.095 59.1307H183.459L196.277 94.0398H191.845L181.413 64.6534H181.14L170.709 94.0398ZM172.345 80.4034H190.209V84.1534H172.345V80.4034Z" fill="white"/>
<path d="M226.063 59.1307H230.291V82.2443C230.291 84.6307 229.728 86.7614 228.603 88.6364C227.489 90.5 225.916 91.9716 223.881 93.0511C221.847 94.1193 219.461 94.6534 216.722 94.6534C213.984 94.6534 211.597 94.1193 209.563 93.0511C207.529 91.9716 205.95 90.5 204.825 88.6364C203.711 86.7614 203.154 84.6307 203.154 82.2443V59.1307H207.381V81.9034C207.381 83.608 207.756 85.125 208.506 86.4545C209.256 87.7727 210.325 88.8125 211.711 89.5739C213.109 90.3239 214.779 90.6989 216.722 90.6989C218.666 90.6989 220.336 90.3239 221.734 89.5739C223.131 88.8125 224.2 87.7727 224.938 86.4545C225.688 85.125 226.063 83.608 226.063 81.9034V59.1307ZM214.881 55.5852L219.041 47.6761H223.745L218.427 55.5852H214.881Z" fill="white"/>
<path d="M250.945 94.0398H240.172V59.1307H251.422C254.809 59.1307 257.706 59.8295 260.116 61.2273C262.525 62.6136 264.371 64.608 265.655 67.2102C266.939 69.8011 267.581 72.9034 267.581 76.517C267.581 80.1534 266.934 83.2841 265.638 85.9091C264.343 88.5227 262.456 90.5341 259.979 91.9432C257.502 93.3409 254.491 94.0398 250.945 94.0398ZM244.4 90.2898H250.672C253.559 90.2898 255.951 89.733 257.848 88.6193C259.746 87.5057 261.161 85.9205 262.093 83.8636C263.025 81.8068 263.491 79.358 263.491 76.517C263.491 73.6989 263.03 71.2727 262.11 69.2386C261.189 67.1932 259.814 65.625 257.985 64.5341C256.155 63.4318 253.877 62.8807 251.15 62.8807H244.4V90.2898Z" fill="white"/>
<path d="M276.112 94.0398V59.1307H297.181V62.8807H280.34V74.6761H296.09V78.4261H280.34V90.2898H297.453V94.0398H276.112Z" fill="white"/>
<path d="M136.75 118.04H134.057V109.312H136.869C137.716 109.312 138.44 109.487 139.043 109.837C139.645 110.183 140.107 110.682 140.428 111.332C140.749 111.98 140.909 112.756 140.909 113.659C140.909 114.568 140.747 115.351 140.423 116.007C140.099 116.661 139.628 117.163 139.009 117.516C138.389 117.865 137.636 118.04 136.75 118.04ZM135.114 117.102H136.682C137.403 117.102 138.001 116.963 138.476 116.685C138.95 116.406 139.304 116.01 139.537 115.496C139.77 114.982 139.886 114.369 139.886 113.659C139.886 112.955 139.771 112.348 139.541 111.839C139.311 111.328 138.967 110.936 138.51 110.663C138.053 110.388 137.483 110.25 136.801 110.25H135.114V117.102Z" fill="white"/>
<path d="M146.042 118.04V109.312H151.309V110.25H147.099V113.199H151.036V114.136H147.099V117.102H151.377V118.04H146.042Z" fill="white"/>
<path d="M159.267 118.04H156.574V109.312H159.386C160.233 109.312 160.957 109.487 161.56 109.837C162.162 110.183 162.623 110.682 162.944 111.332C163.266 111.98 163.426 112.756 163.426 113.659C163.426 114.568 163.264 115.351 162.94 116.007C162.616 116.661 162.145 117.163 161.525 117.516C160.906 117.865 160.153 118.04 159.267 118.04ZM157.631 117.102H159.199C159.92 117.102 160.518 116.963 160.993 116.685C161.467 116.406 161.821 116.01 162.054 115.496C162.287 114.982 162.403 114.369 162.403 113.659C162.403 112.955 162.288 112.348 162.058 111.839C161.828 111.328 161.484 110.936 161.027 110.663C160.569 110.388 160 110.25 159.318 110.25H157.631V117.102Z" fill="white"/>
<path d="M169.616 109.312V118.04H168.559V109.312H169.616Z" fill="white"/>
<path d="M182.117 112.04H181.06C180.998 111.736 180.889 111.469 180.732 111.239C180.579 111.009 180.391 110.815 180.17 110.659C179.951 110.5 179.708 110.381 179.441 110.301C179.174 110.222 178.896 110.182 178.606 110.182C178.077 110.182 177.599 110.315 177.17 110.582C176.744 110.849 176.404 111.243 176.151 111.763C175.901 112.283 175.776 112.92 175.776 113.676C175.776 114.432 175.901 115.07 176.151 115.589C176.404 116.109 176.744 116.503 177.17 116.77C177.599 117.037 178.077 117.17 178.606 117.17C178.896 117.17 179.174 117.131 179.441 117.051C179.708 116.972 179.951 116.854 180.17 116.697C180.391 116.538 180.579 116.344 180.732 116.114C180.889 115.881 180.998 115.614 181.06 115.312H182.117C182.038 115.759 181.893 116.158 181.683 116.51C181.472 116.862 181.211 117.162 180.899 117.409C180.586 117.653 180.235 117.839 179.846 117.967C179.46 118.095 179.046 118.159 178.606 118.159C177.862 118.159 177.2 117.977 176.62 117.614C176.041 117.25 175.585 116.733 175.252 116.062C174.92 115.392 174.754 114.597 174.754 113.676C174.754 112.756 174.92 111.96 175.252 111.29C175.585 110.619 176.041 110.102 176.62 109.739C177.2 109.375 177.862 109.193 178.606 109.193C179.046 109.193 179.46 109.257 179.846 109.385C180.235 109.513 180.586 109.7 180.899 109.947C181.211 110.192 181.472 110.49 181.683 110.842C181.893 111.192 182.038 111.591 182.117 112.04Z" fill="white"/>
<path d="M187.543 118.04H186.435L189.64 109.312H190.73L193.935 118.04H192.827L190.219 110.693H190.151L187.543 118.04ZM187.952 114.631H192.418V115.568H187.952V114.631Z" fill="white"/>
<path d="M205.267 112.04H204.21C204.148 111.736 204.038 111.469 203.882 111.239C203.729 111.009 203.541 110.815 203.32 110.659C203.101 110.5 202.858 110.381 202.591 110.301C202.324 110.222 202.045 110.182 201.756 110.182C201.227 110.182 200.748 110.315 200.32 110.582C199.893 110.849 199.554 111.243 199.301 111.763C199.051 112.283 198.926 112.92 198.926 113.676C198.926 114.432 199.051 115.07 199.301 115.589C199.554 116.109 199.893 116.503 200.32 116.77C200.748 117.037 201.227 117.17 201.756 117.17C202.045 117.17 202.324 117.131 202.591 117.051C202.858 116.972 203.101 116.854 203.32 116.697C203.541 116.538 203.729 116.344 203.882 116.114C204.038 115.881 204.148 115.614 204.21 115.312H205.267C205.187 115.759 205.043 116.158 204.832 116.51C204.622 116.862 204.361 117.162 204.048 117.409C203.736 117.653 203.385 117.839 202.996 117.967C202.609 118.095 202.196 118.159 201.756 118.159C201.011 118.159 200.349 117.977 199.77 117.614C199.19 117.25 198.734 116.733 198.402 116.062C198.07 115.392 197.903 114.597 197.903 113.676C197.903 112.756 198.07 111.96 198.402 111.29C198.734 110.619 199.19 110.102 199.77 109.739C200.349 109.375 201.011 109.193 201.756 109.193C202.196 109.193 202.609 109.257 202.996 109.385C203.385 109.513 203.736 109.7 204.048 109.947C204.361 110.192 204.622 110.49 204.832 110.842C205.043 111.192 205.187 111.591 205.267 112.04ZM201.312 118.074H202.148L202.079 118.415C202.301 118.449 202.504 118.541 202.689 118.692C202.873 118.845 202.966 119.088 202.966 119.42C202.966 119.787 202.814 120.085 202.51 120.315C202.209 120.548 201.764 120.665 201.176 120.665L201.142 120C201.406 120 201.625 119.957 201.798 119.872C201.974 119.79 202.062 119.651 202.062 119.455C202.062 119.259 201.99 119.125 201.845 119.054C201.7 118.983 201.466 118.935 201.142 118.909L201.312 118.074Z" fill="white"/>
<path d="M210.693 118.04H209.585L212.789 109.312H213.88L217.085 118.04H215.977L213.369 110.693H213.301L210.693 118.04ZM211.102 114.631H215.568V115.568H211.102V114.631ZM212.022 108.443L211.238 108.409C211.238 107.974 211.362 107.619 211.609 107.344C211.859 107.065 212.167 106.926 212.534 106.926C212.695 106.926 212.839 106.955 212.964 107.011C213.089 107.065 213.208 107.128 213.322 107.199C213.436 107.27 213.552 107.334 213.671 107.391C213.794 107.445 213.931 107.472 214.085 107.472C214.247 107.472 214.383 107.409 214.494 107.284C214.607 107.156 214.664 107.003 214.664 106.824L215.431 106.892C215.431 107.335 215.306 107.688 215.056 107.949C214.809 108.21 214.502 108.341 214.136 108.341C213.94 108.341 213.778 108.314 213.65 108.26C213.522 108.203 213.409 108.139 213.309 108.068C213.21 107.997 213.105 107.935 212.994 107.881C212.883 107.824 212.747 107.795 212.585 107.795C212.423 107.795 212.288 107.859 212.18 107.987C212.075 108.112 212.022 108.264 212.022 108.443Z" fill="white"/>
<path d="M228.758 113.676C228.758 114.597 228.591 115.392 228.259 116.062C227.927 116.733 227.471 117.25 226.891 117.614C226.312 117.977 225.65 118.159 224.905 118.159C224.161 118.159 223.499 117.977 222.919 117.614C222.34 117.25 221.884 116.733 221.552 116.062C221.219 115.392 221.053 114.597 221.053 113.676C221.053 112.756 221.219 111.96 221.552 111.29C221.884 110.619 222.34 110.102 222.919 109.739C223.499 109.375 224.161 109.193 224.905 109.193C225.65 109.193 226.312 109.375 226.891 109.739C227.471 110.102 227.927 110.619 228.259 111.29C228.591 111.96 228.758 112.756 228.758 113.676ZM227.735 113.676C227.735 112.92 227.608 112.283 227.356 111.763C227.106 111.243 226.766 110.849 226.337 110.582C225.911 110.315 225.434 110.182 224.905 110.182C224.377 110.182 223.898 110.315 223.469 110.582C223.043 110.849 222.704 111.243 222.451 111.763C222.201 112.283 222.076 112.92 222.076 113.676C222.076 114.432 222.201 115.07 222.451 115.589C222.704 116.109 223.043 116.503 223.469 116.77C223.898 117.037 224.377 117.17 224.905 117.17C225.434 117.17 225.911 117.037 226.337 116.77C226.766 116.503 227.106 116.109 227.356 115.589C227.608 115.07 227.735 114.432 227.735 113.676Z" fill="white"/>
<path d="M240.987 118.04H239.88L243.084 109.312H244.175L247.38 118.04H246.272L243.664 110.693H243.595L240.987 118.04ZM241.397 114.631H245.862V115.568H241.397V114.631ZM243.203 108.426L241.874 106.449H243.05L244.09 108.426H243.203Z" fill="white"/>
<path d="M259.192 109.312L261.783 116.659H261.885L264.476 109.312H265.584L262.379 118.04H261.288L258.084 109.312H259.192Z" fill="white"/>
<path d="M271.36 109.312V118.04H270.303V109.312H271.36Z" fill="white"/>
<path d="M279.532 118.04H276.839V109.312H279.652C280.498 109.312 281.223 109.487 281.825 109.837C282.427 110.183 282.889 110.682 283.21 111.332C283.531 111.98 283.691 112.756 283.691 113.659C283.691 114.568 283.529 115.351 283.206 116.007C282.882 116.661 282.41 117.163 281.791 117.516C281.171 117.865 280.419 118.04 279.532 118.04ZM277.896 117.102H279.464C280.186 117.102 280.784 116.963 281.258 116.685C281.733 116.406 282.086 116.01 282.319 115.496C282.552 114.982 282.669 114.369 282.669 113.659C282.669 112.955 282.554 112.348 282.323 111.839C282.093 111.328 281.75 110.936 281.292 110.663C280.835 110.388 280.265 110.25 279.583 110.25H277.896V117.102Z" fill="white"/>
<path d="M288.772 118.04H287.664L290.868 109.312H291.959L295.164 118.04H294.056L291.448 110.693H291.38L288.772 118.04ZM289.181 114.631H293.647V115.568H289.181V114.631Z" fill="white"/>
<path d="M0 3.03978H104C112.837 3.03978 120 10.2032 120 19.0398V123.04H16C7.16344 123.04 0 115.876 0 107.04V3.03978Z" fill="#E72254"/>
<path d="M73.0001 79.0398V100.04C73.0001 100.592 72.5524 101.04 72.0001 101.04H47.0001C46.4478 101.04 46.0001 100.592 46.0001 100.04V76.0398C46.0001 75.4875 45.5524 75.0398 45.0001 75.0398H20C19.4477 75.0398 19 74.592 19 74.0398V48.0398C19 47.4875 19.4477 47.0398 20 47.0398H59.5001C59.5001 47.0398 59.5001 47.0398 59.5001 47.0398C59.5001 47.0398 65.4167 47.0398 69.5 50.5398C73 53.5397 73.0001 60.0396 73.0001 60.0398C73.0001 60.0398 73.0001 60.0398 73.0001 60.0398V73.0398" stroke="white" stroke-width="3"/>
<path d="M45.9999 44.4657L45.9999 22.0398C45.9999 21.4875 46.4476 21.0398 46.9999 21.0398L71.9999 21.0398C72.5522 21.0398 72.9999 21.4875 72.9999 22.0398L72.9999 46.5213C72.9999 47.0736 73.4476 47.5213 73.9999 47.5213L99 47.5213C99.5523 47.5213 100 47.969 100 48.5213L100 75.0398C100 75.5921 99.5523 76.0398 99 76.0398L59.4999 76.0398C59.4999 76.0398 59.4999 76.0398 59.4999 76.0398C59.4999 76.0398 53.5833 76.0398 49.5 72.475C46 69.4195 45.9999 62.7992 45.9999 62.7991C45.9999 62.7991 45.9999 62.7991 45.9999 62.7991L45.9999 49.5583" stroke="white" stroke-width="3"/>
</svg>
