<svg width="58" height="58" viewBox="0 0 58 58" fill="none" xmlns="http://www.w3.org/2000/svg">
<path d="M0 0H42C50.8366 0 58 7.16344 58 16V58H16C7.16345 58 0 50.8366 0 42V0Z" fill="#DC2654"/>
<path d="M35.2834 36.7334V46.3667C35.2834 46.919 34.8357 47.3667 34.2834 47.3667H23.2334C22.6811 47.3667 22.2334 46.919 22.2334 46.3667V35.8C22.2334 35.2478 21.7857 34.8 21.2334 34.8H10.1833C9.63105 34.8 9.18333 34.3523 9.18333 33.8V22.2667C9.18333 21.7144 9.63105 21.2667 10.1833 21.2667H28.7584C28.7584 21.2667 28.7584 21.2667 28.7584 21.2667C28.7584 21.2667 31.6181 21.2667 33.5917 22.9584C35.2833 24.4083 35.2834 27.5499 35.2834 27.55C35.2834 27.55 35.2834 27.55 35.2834 27.5501V33.8334" stroke="white" stroke-width="3"/>
<path d="M22.2333 20.0225L22.2333 9.69999C22.2333 9.14771 22.681 8.69999 23.2333 8.69999L34.2833 8.69999C34.8356 8.69999 35.2833 9.1477 35.2833 9.69999L35.2833 20.4994C35.2833 21.0517 35.731 21.4994 36.2833 21.4994L47.3333 21.4994C47.8856 21.4994 48.3333 21.9471 48.3333 22.4994L48.3333 34.2833C48.3333 34.8356 47.8856 35.2833 47.3333 35.2833L28.7583 35.2833C28.7583 35.2833 28.7583 35.2833 28.7583 35.2833C28.7583 35.2833 25.8986 35.2833 23.925 33.5603C22.2334 32.0835 22.2333 28.8838 22.2333 28.8837C22.2333 28.8836 22.2333 28.8836 22.2333 28.8836L22.2333 22.484" stroke="white" stroke-width="3"/>
</svg>
